# xmcd
#
# Track frame offsets: 
#        150
#        12592
#        24737
#        37502
#        50270
#        63942
#        76105
#        89007
#        98902
#        109300
#        122022
#        133335
#        144045
#        156634
#        168312
#        180787
#        193432
#        206940
#        219080
#
# Disc length: 3095 seconds
#
# Revision: 2
# Processed by: cddbd v1.5.2PL0 Copyright (c) Steve Scherf et al.
# Submitted via: ExactAudioCopy v0.99pb4
#
DISCID=060c1513
DTITLE=Lightnin' Hopkins - Ground Hog Blues - "Sittin In With" Session
DTITLE=s - CD1
DYEAR=2004
DGENRE=Blues
TTITLE0=Coffee Blues
TTITLE1=Gotta Move
TTITLE2=Freight Train
TTITLE3=Don't Think I'm Crazy
TTITLE4=Dirty House Blues
TTITLE5=Everything Happens To Me
TTITLE6=Cairo Blues
TTITLE7=Bad Whiskey
TTITLE8=Ground Hog Blues
TTITLE9=Automobile Blues
TTITLE10=Got To Go
TTITLE11=Unsuccessful Blues
TTITLE12=Rollin' Woman Blues
TTITLE13=Big Mama Jump (Little Mama Blues)
TTITLE14=Ida Mae
TTITLE15=Shining Moon
TTITLE16=Give Me Central 209 (Hello Central)
TTITLE17=Contrary Mary
TTITLE18=Bald Headed Woman
EXTD=YEAR: 2004
EXTT0=
EXTT1=
EXTT2=
EXTT3=
EXTT4=
EXTT5=
EXTT6=
EXTT7=
EXTT8=
EXTT9=
EXTT10=
EXTT11=
EXTT12=
EXTT13=
EXTT14=
EXTT15=
EXTT16=
EXTT17=
EXTT18=
PLAYORDER=
